<svg viewBox="0 0 48 48" fill="none" xmlns="http://www.w3.org/2000/svg">
  <defs>
    <linearGradient id="fc-doc" x1="0" y1="0" x2="0" y2="1">
      <stop offset="0%" stop-color="#1a7fef"/>
      <stop offset="100%" stop-color="#1670d6"/>
    </linearGradient>
    <linearGradient id="fc-link" x1="0" y1="0" x2="1" y2="1">
      <stop offset="0%" stop-color="#28b87a"/>
      <stop offset="100%" stop-color="#22a36c"/>
    </linearGradient>
  </defs>
  <rect width="48" height="48" rx="10" fill="#0b1220"/>
  <path d="M10 8 H28 L38 18 V38 a3 3 0 0 1 -3 3 H10 a3 3 0 0 1 -3 -3 V11 a3 3 0 0 1 3 -3 z" fill="url(#fc-doc)"/>
  <path d="M28 8 V15 a3 3 0 0 0 3 3 H38 Z" fill="#1a7fef" opacity="0.55"/>
  <rect x="11" y="20" width="14" height="2.2" rx="1.1" fill="white" opacity="0.95"/>
  <rect x="11" y="25" width="19" height="2.2" rx="1.1" fill="white" opacity="0.85"/>
  <rect x="11" y="30" width="16" height="2.2" rx="1.1" fill="white" opacity="0.7"/>
  <g transform="translate(26 24)">
    <circle cx="8" cy="8" r="8.5" fill="#0b1220"/>
    <path d="M3.5 8 a3 3 0 0 1 3 -3 h2 M12.5 8 a3 3 0 0 1 -3 3 h-2" stroke="url(#fc-link)" stroke-width="2" stroke-linecap="round" fill="none"/>
    <path d="M6 8 h4" stroke="url(#fc-link)" stroke-width="2" stroke-linecap="round"/>
  </g>
</svg>
